<svg id="Layer_1" data-name="Layer 1" xmlns="http://www.w3.org/2000/svg" viewBox="0 0 420.55 541.69"><defs><style>.cls-1{fill:#fff;}</style></defs><title>BIO ICONS</title><path class="cls-1" d="M8,293.42c0-38.75-.43-77.51.19-116.25.28-17.33,5.62-33.8,15.21-49.06a116.35,116.35,0,0,1,43.95-40.9c4.44-2.41,6.54-5.24,6.26-10.13-.43-7.47-.2-15,0-22.46.25-12.08,7.23-20,18.93-25,20.23-8.68,44.13,7.16,43.28,26.41-.17,3.93,0,7.88.06,11.82,0,2.74,1.53,4.11,4.51,4.2,1.15,0,2.31.06,3.46.06q66.1,0,132.2,0c9.73,0,9.59-.15,9.92-9.16.23-6.21,0-12.85,2.31-18.52,4.09-10.08,13.37-15.84,25-17,13.07-1.33,23,4.09,30.26,14,4,5.45,4.31,11.6,4.52,17.75.23,6.56.27,13.14,0,19.7-.17,4,1.56,6.29,5.23,8.18a115.76,115.76,0,0,1,35.1,28.17,104.17,104.17,0,0,1,22.72,46.21,78.74,78.74,0,0,1,1.45,16.86c.1,75.8,0,151.59.15,227.39,0,19.83-5.64,38.08-16.58,55-10.36,16.05-24.78,28.5-42.21,38.18-19.52,10.86-40.93,15.39-63.52,15.46-53.89.15-107.79.46-161.68-.09-42.1-.43-75.38-17-99.87-48.24A99.2,99.2,0,0,1,10.9,428.74C8.77,420.4,8.15,411.59,8.08,403c-.29-36.52-.12-73-.12-109.56Zm379.44-.54h0q0-52.6,0-105.21c0-12.39-1.36-24.55-6.31-36.23a85.63,85.63,0,0,0-28.28-36.09c-2.82-2.1-4.08-1.59-5,1.68s-1.28,6.83-2.9,9.81c-6.33,11.63-16.75,16.84-31.17,16.51-12.9-.3-28.18-12.39-27.91-25.43.12-5.78-.1-11.56,0-17.34,0-3.83-2-5.54-6.08-5.51-1.45,0-2.89,0-4.34,0H145c-1.3,0-2.6,0-3.9.06-3.7.06-5.5,1.61-5.38,5.15.18,5,.08,10,.05,15-.07,14.43-13.47,27.47-28.59,28.33-19.56,1.11-33.53-13.32-33.69-25.82,0-1.14-.81-3.09-1.56-3.23a6.15,6.15,0,0,0-4.14,1.18C53.44,126.34,44,140.09,38.1,155.91c-3.44,9.27-3.93,19-3.92,28.68q.07,89.85,0,179.7c0,16.16-.14,32.32.35,48.47.3,9.62,3.42,18.79,7.89,27.56a87.72,87.72,0,0,0,28.9,32.79,91.77,91.77,0,0,0,31.51,14.28c12.44,2.89,25.13,3.81,38.11,3.7,47.82-.42,95.65-.12,143.47-.23,7,0,14.1-.58,21.1-1.29,24.17-2.45,43.76-13,59.28-29.51,15-16,22.47-35,22.58-56.05C387.61,367,387.47,329.93,387.47,292.88Z"/><path class="cls-1" d="M118.74,337.8c-13.71.2-26-11.59-25.87-26.58a26.09,26.09,0,0,1,52.18.37C145.13,325.85,132.87,338,118.74,337.8Z"/><path class="cls-1" d="M235.77,410.05c1.21,13.66-12.92,25.83-24.68,25.91C193,436.08,183,421.64,183.77,409c.94-15,11.69-25,26-25.18C223.49,383.67,236.21,394.35,235.77,410.05Z"/><path class="cls-1" d="M209.84,285.91C222.46,284.57,236.2,297.46,236,312c-.22,14.9-13.81,26.23-26.68,25.89-14.09-.37-25.74-12.41-25.57-27C183.88,297.73,196.41,284.72,209.84,285.91Z"/><path class="cls-1" d="M278.94,311.57c-1.73-13.44,12.54-26.37,26.06-25.87,12.92.48,25.74,10.48,25.47,26.41-.23,14.42-11.08,25.54-26.64,25.74C291.66,338,277.21,325.82,278.94,311.57Z"/><path class="cls-1" d="M235.78,213.57c.77,12.27-10.3,26.15-26.3,25.81-15.36-.32-25-12.26-25.8-24.67-.9-13.25,10.61-27.19,26-27.09C223.15,187.71,236.53,198.55,235.78,213.57Z"/><path class="cls-1" d="M301.22,187.83c16-.19,26.1,12.24,25.79,26-.32,14.26-10.45,25.59-26.4,25.61-13.75,0-25.77-11.53-25.69-26.64C275,199.93,287.34,186.51,301.22,187.83Z"/><path class="cls-1" d="M120,435.54c-12.6,2.24-26.22-9.94-26.94-23.24-.87-16.13,9.63-27.23,24.9-28.6,13.06-1.17,26.19,10.88,27,24C145.88,423,135.51,434.5,120,435.54Z"/><path class="cls-1" d="M300.79,435.51c-14.24,1.62-26.1-13-25.87-25.55.29-15.25,12.07-26.39,25.78-26.12,13.87.26,25.77,9.06,26.23,26.18C327.25,422.25,316.07,437,300.79,435.51Z"/><path class="cls-1" d="M118.81,187.78c14.78-.06,26.13,11,26.19,25.6a26.08,26.08,0,0,1-52.15.57C92.63,200.05,103.79,187.19,118.81,187.78Z"/></svg>